<svg xmlns="http://www.w3.org/2000/svg" width="1600" height="1100" viewBox="0 0 1600 1100" role="img" aria-label="Tennis court background">
  <rect width="1600" height="1100" fill="#edf6ea"/>
  <rect x="80" y="90" width="1440" height="920" rx="24" fill="#5d9368" opacity="0.34"/>
  <rect x="170" y="170" width="1260" height="760" rx="8" fill="#4f8f5d" opacity="0.28"/>
  <g fill="none" stroke="#ffffff" stroke-linecap="square">
    <rect x="160" y="235" width="1280" height="630" stroke-width="13" opacity="0.76"/>
    <rect x="160" y="300" width="1280" height="500" stroke-width="10" opacity="0.62"/>
    <line x1="800" y1="235" x2="800" y2="865" stroke-width="12" opacity="0.66"/>
    <line x1="545" y1="300" x2="545" y2="800" stroke-width="9" opacity="0.58"/>
    <line x1="1055" y1="300" x2="1055" y2="800" stroke-width="9" opacity="0.58"/>
    <line x1="545" y1="550" x2="1055" y2="550" stroke-width="9" opacity="0.58"/>
    <line x1="160" y1="550" x2="196" y2="550" stroke-width="9" opacity="0.58"/>
    <line x1="1404" y1="550" x2="1440" y2="550" stroke-width="9" opacity="0.58"/>
  </g>
  <line x1="800" y1="215" x2="800" y2="885" stroke="#223827" stroke-width="10" opacity="0.24"/>
  <circle cx="1324" cy="206" r="58" fill="#d8ef48" opacity="0.72"/>
  <path d="M1301 153c24 30 50 80 3 106" fill="none" stroke="#ffffff" stroke-width="8" opacity="0.72"/>
</svg>
